<svg xmlns="http://www.w3.org/2000/svg" width="152" height="59" fill="none" viewBox="0 0 152 59">
  <rect width="150" height="56" x="1" y="1.096" fill="#FDF8EA" stroke="#1A1A1A" stroke-width="2" rx="11"/>
  <path fill="#1A1A1A" d="M46.103 35.096h5.824c2 0 3.392-1.088 3.392-2.96v-.16c0-1.6-1.072-2.224-1.776-2.416v-.288c.688-.208 1.712-.832 1.712-2.384v-.16c0-1.744-1.344-2.832-3.392-2.832h-5.76v1.856h1.472v7.488h-1.472v1.856Zm3.584-6.592v-2.688h1.952c.896 0 1.504.464 1.504 1.264v.16c0 .8-.624 1.264-1.504 1.264h-1.952Zm0 4.672v-2.752h1.984c.928 0 1.536.464 1.536 1.296v.16c0 .832-.624 1.296-1.536 1.296h-1.984Zm11.681 2.144c2.752 0 4.384-1.6 4.384-4.16v-7.264H63.64v7.328c0 1.376-.8 2.208-2.272 2.208-1.472 0-2.272-.832-2.272-2.208v-7.328h-2.112v7.264c0 2.56 1.632 4.16 4.384 4.16Zm9.022-.224h2.112v-9.28h3.264v-1.92h-8.64v1.92h3.264v9.28Zm9.406 0h2.112v-9.28h3.264v-1.92h-8.64v1.92h3.264v9.28Zm10.714.224c2.816 0 4.608-1.6 4.608-4.48v-2.688c0-2.88-1.792-4.48-4.608-4.48s-4.608 1.6-4.608 4.48v2.688c0 2.88 1.792 4.48 4.608 4.48Zm0-1.888c-1.568 0-2.496-.992-2.496-2.528v-2.816c0-1.536.928-2.528 2.496-2.528s2.496.992 2.496 2.528v2.816c0 1.536-.928 2.528-2.496 2.528Zm6.46 1.664h2.08v-9.76h.288l2.224 9.76h4.016v-11.2h-2.08v9.76h-.288l-2.224-9.76H96.97v11.2Z"/>
</svg>
