<svg xmlns="http://www.w3.org/2000/svg" width="168" height="225" fill="none" viewBox="0 0 168 225">
  <rect width="166" height="223" x="1" y="1" fill="#A4D677" stroke="#1A1A1A" stroke-width="2" rx="11"/>
  <path fill="#1A1A1A" d="M36.056 142h7.232v-1.92h-5.12v-9.28h-2.112V142Zm12.512.224c2.368 0 4.16-1.504 4.16-4.064v-.256c0-2.56-1.792-4.064-4.16-4.064-2.368 0-4.16 1.504-4.16 4.064v.256c0 2.56 1.792 4.064 4.16 4.064Zm0-1.792c-1.232 0-2.144-.832-2.144-2.32v-.16c0-1.488.896-2.32 2.144-2.32 1.248 0 2.144.832 2.144 2.32v.16c0 1.488-.912 2.32-2.144 2.32Zm6.02 1.568h2.017v-4.512c0-1.12.736-1.664 1.76-1.664h.992v-1.792h-.96c-.736 0-1.312.288-1.536.928h-.288v-.896h-1.984V142Zm9.68.224c2.175 0 3.12-1.232 3.567-2.08l-1.648-.864c-.272.608-.736 1.184-1.856 1.184s-1.968-.752-2.016-1.84h5.776v-.688c0-2.432-1.52-4.096-3.856-4.096-2.368 0-3.968 1.6-3.968 4.096v.192c0 2.496 1.616 4.096 4 4.096Zm-1.937-5.104c.144-.912.8-1.52 1.888-1.52 1.04 0 1.728.608 1.824 1.52h-3.712Zm7.555 4.88h2.016v-4.688c0-1.088.512-1.696 1.44-1.696.8 0 1.28.448 1.28 1.312V142h2.016v-4.688c0-1.088.512-1.696 1.44-1.696.8 0 1.28.448 1.28 1.312V142h2.016v-5.216c0-1.92-1.184-2.848-2.656-2.848-1.216 0-1.824.512-2.176 1.184h-.288c-.368-.704-1.008-1.184-2.144-1.184-1.056 0-1.68.464-1.952.992h-.288v-.864h-1.984V142Zm18.726-8.864c.736 0 1.296-.512 1.296-1.28s-.56-1.28-1.296-1.28-1.296.512-1.296 1.28.56 1.28 1.296 1.28ZM87.604 142h2.016v-7.936h-2.016V142Zm4.25 3.2h2.016v-4.112h.288c.336.56 1.024 1.136 2.464 1.136 1.92 0 3.584-1.472 3.584-4.064v-.256c0-2.592-1.68-4.064-3.584-4.064-1.44 0-2.128.576-2.496 1.184h-.288v-.96h-1.984V145.2Zm4.16-4.736c-1.248 0-2.176-.816-2.176-2.352v-.16c0-1.536.944-2.352 2.176-2.352 1.232 0 2.176.816 2.176 2.352v.16c0 1.536-.928 2.352-2.176 2.352Zm9.339 1.76c2.016 0 3.328-.944 3.328-2.608 0-1.664-1.408-2.176-3.2-2.496l-.448-.08c-.736-.128-1.184-.336-1.184-.848 0-.464.416-.752 1.184-.752s1.312.304 1.488 1.12l1.872-.576c-.368-1.28-1.584-2.144-3.36-2.144-1.888 0-3.136.88-3.136 2.448s1.376 2.192 3.04 2.496l.448.08c.944.176 1.344.4 1.344.896s-.448.864-1.376.864c-.928 0-1.68-.352-1.888-1.472l-1.856.48c.272 1.664 1.664 2.592 3.744 2.592Zm8.119-.096c1.424 0 2.064-.624 2.32-1.168h.288V142h1.984v-7.936h-2.016v4.032c0 1.472-.72 2.336-1.952 2.336-1.088 0-1.696-.592-1.696-1.792v-4.576h-2.016v4.736c0 1.968 1.232 3.328 3.088 3.328Zm6.835-.128h2.016v-4.688c0-1.088.512-1.696 1.44-1.696.8 0 1.28.448 1.28 1.312V142h2.016v-4.688c0-1.088.512-1.696 1.44-1.696.8 0 1.28.448 1.28 1.312V142h2.016v-5.216c0-1.92-1.184-2.848-2.656-2.848-1.216 0-1.824.512-2.176 1.184h-.288c-.368-.704-1.008-1.184-2.144-1.184-1.056 0-1.68.464-1.952.992h-.288v-.864h-1.984V142Zm-89.24 28h5.34v-1.176h-4.044V161.6h-1.296v8.4Zm9.312.168c1.776 0 3.072-1.152 3.072-3.036v-.18c0-1.872-1.296-3.036-3.072-3.036s-3.06 1.164-3.06 3.036v.18c0 1.884 1.284 3.036 3.06 3.036Zm0-1.104c-1.08 0-1.824-.732-1.824-1.968v-.108c0-1.224.744-1.968 1.824-1.968 1.092 0 1.836.744 1.836 1.968v.108c0 1.236-.756 1.968-1.836 1.968Zm4.611.936h1.236v-3.48c0-.912.564-1.344 1.368-1.344h.756v-1.116h-.708c-.636 0-1.056.228-1.248.72h-.192v-.696H44.99V170Zm7.142.168c1.596 0 2.292-.9 2.652-1.584l-1.032-.528c-.252.552-.66 1.032-1.596 1.032-.996 0-1.728-.66-1.764-1.704h4.548v-.468c0-1.8-1.152-3-2.856-3-1.74 0-2.952 1.212-2.952 3.06v.144c0 1.836 1.2 3.048 3 3.048Zm-1.728-3.732c.12-.888.732-1.428 1.668-1.428.924 0 1.548.54 1.62 1.428h-3.288ZM56.428 170h1.236v-3.528c0-.936.504-1.44 1.272-1.44.708 0 1.128.408 1.128 1.116V170H61.3v-3.528c0-.936.504-1.44 1.272-1.44.708 0 1.128.408 1.128 1.116V170h1.236v-3.936c0-1.344-.852-2.076-1.992-2.076-.96 0-1.44.42-1.704.96h-.192c-.276-.552-.78-.96-1.668-.96-.852 0-1.332.384-1.548.792h-.192v-.696h-1.212V170Zm13.971-6.72c.48 0 .852-.336.852-.84s-.372-.84-.852-.84c-.492 0-.852.336-.852.84s.36.84.852.84Zm-.624 6.72h1.236v-5.916h-1.236V170Zm3.07 2.4h1.237v-3.204h.192c.276.48.84.972 1.992.972 1.488 0 2.736-1.128 2.736-3.036v-.18c0-1.908-1.26-3.036-2.736-3.036-1.152 0-1.716.492-2.016 1.02h-.192v-.852h-1.212v8.316Zm3.06-3.312c-1.067 0-1.835-.72-1.835-1.992v-.108c0-1.272.78-1.98 1.836-1.98 1.068 0 1.848.708 1.848 1.98v.108c0 1.272-.768 1.992-1.848 1.992Zm7.052 1.08c1.476 0 2.436-.684 2.436-1.872 0-1.2-1.02-1.584-2.304-1.812l-.42-.072c-.648-.12-1.044-.3-1.044-.78 0-.444.396-.708 1.08-.708.696 0 1.188.264 1.32.984l1.152-.324c-.252-1.032-1.14-1.668-2.472-1.668-1.38 0-2.28.648-2.28 1.764s.96 1.584 2.16 1.8l.42.072c.768.144 1.176.324 1.176.804 0 .492-.444.816-1.224.816-.792 0-1.464-.312-1.632-1.308l-1.152.276c.216 1.356 1.272 2.028 2.784 2.028Zm6.149-.06c1.128 0 1.644-.504 1.872-.996h.192V170h1.212v-5.916h-1.236v2.988c0 1.284-.66 1.98-1.68 1.98-.912 0-1.452-.48-1.452-1.5v-3.468h-1.236v3.552c0 1.524.972 2.472 2.328 2.472Zm5.103-.108h1.236v-3.528c0-.936.504-1.44 1.272-1.44.708 0 1.128.408 1.128 1.116V170h1.236v-3.528c0-.936.504-1.44 1.272-1.44.708 0 1.128.408 1.128 1.116V170h1.236v-3.936c0-1.344-.852-2.076-1.992-2.076-.96 0-1.44.42-1.704.96h-.192c-.276-.552-.78-.96-1.668-.96-.852 0-1.332.384-1.548.792h-.192v-.696h-1.212V170Zm15.796.168c1.152 0 1.716-.492 2.016-1.008h.192v.84h1.212v-8.4h-1.236v3.288h-.192c-.276-.48-.84-.972-1.992-.972-1.488 0-2.736 1.128-2.736 3.036v.18c0 1.92 1.26 3.036 2.736 3.036Zm.348-1.08c-1.056 0-1.836-.72-1.836-1.992v-.108c0-1.272.768-1.98 1.836-1.98 1.08 0 1.848.708 1.848 1.98v.108c0 1.272-.78 1.992-1.848 1.992Zm7.663 1.08c1.776 0 3.072-1.152 3.072-3.036v-.18c0-1.872-1.296-3.036-3.072-3.036s-3.06 1.164-3.06 3.036v.18c0 1.884 1.284 3.036 3.06 3.036Zm0-1.104c-1.08 0-1.824-.732-1.824-1.968v-.108c0-1.224.744-1.968 1.824-1.968 1.092 0 1.836.744 1.836 1.968v.108c0 1.236-.756 1.968-1.836 1.968Zm4.611.936h1.236v-8.4h-1.236v8.4Zm5.842.168c1.776 0 3.072-1.152 3.072-3.036v-.18c0-1.872-1.296-3.036-3.072-3.036s-3.06 1.164-3.06 3.036v.18c0 1.884 1.284 3.036 3.06 3.036Zm0-1.104c-1.08 0-1.824-.732-1.824-1.968v-.108c0-1.224.744-1.968 1.824-1.968 1.092 0 1.836.744 1.836 1.968v.108c0 1.236-.756 1.968-1.836 1.968Zm4.611.936h1.236v-3.48c0-.912.564-1.344 1.368-1.344h.756v-1.116h-.708c-.636 0-1.056.228-1.248.72h-.192v-.696h-1.212V170Zm-71.621 16.168c1.476 0 2.436-.684 2.436-1.872 0-1.2-1.02-1.584-2.304-1.812l-.42-.072c-.648-.12-1.044-.3-1.044-.78 0-.444.396-.708 1.08-.708.696 0 1.188.264 1.32.984l1.152-.324c-.252-1.032-1.14-1.668-2.472-1.668-1.38 0-2.28.648-2.28 1.764s.96 1.584 2.16 1.8l.42.072c.768.144 1.176.324 1.176.804 0 .492-.444.816-1.224.816-.792 0-1.464-.312-1.632-1.308l-1.152.276c.216 1.356 1.272 2.028 2.784 2.028Zm4.505-6.888c.48 0 .852-.336.852-.84s-.372-.84-.852-.84c-.492 0-.852.336-.852.84s.36.84.852.84ZM65.34 186h1.236v-5.916H65.34V186Zm5.29 0h1.632v-1.044h-1.236c-.228 0-.336-.12-.336-.36v-3.468h1.764v-1.044H70.69v-1.956h-1.236v1.956h-1.632v1.044h1.632v3.684c0 .732.444 1.188 1.176 1.188Zm8.17.168c1.225 0 1.657-.624 1.837-1.008h.192v.036c0 .492.384.804.936.804h.924v-1.032h-.504c-.216 0-.336-.12-.336-.36v-2.436c0-1.44-.936-2.256-2.472-2.256-1.512 0-2.292.804-2.58 1.74l1.152.372c.144-.636.564-1.08 1.416-1.08.864 0 1.272.456 1.272 1.14v.384h-1.8c-1.296 0-2.256.624-2.256 1.824 0 1.2.96 1.872 2.22 1.872Zm.18-1.02c-.731 0-1.163-.348-1.163-.888s.432-.828 1.092-.828h1.728v.12c0 .996-.672 1.596-1.656 1.596Zm4.91.852h1.236v-3.528c0-.936.504-1.44 1.272-1.44.709 0 1.129.408 1.129 1.116V186h1.236v-3.528c0-.936.503-1.44 1.271-1.44.709 0 1.128.408 1.128 1.116V186h1.236v-3.936c0-1.344-.852-2.076-1.992-2.076-.96 0-1.44.42-1.704.96h-.192c-.276-.552-.78-.96-1.668-.96-.852 0-1.332.384-1.547.792h-.192v-.696H83.89V186Zm13.002.168c1.596 0 2.292-.9 2.652-1.584l-1.032-.528c-.252.552-.66 1.032-1.596 1.032-.996 0-1.728-.66-1.764-1.704H99.7v-.468c0-1.8-1.152-3-2.856-3-1.74 0-2.952 1.212-2.952 3.06v.144c0 1.836 1.2 3.048 3 3.048Zm-1.728-3.732c.12-.888.732-1.428 1.668-1.428.924 0 1.548.54 1.62 1.428h-3.288Zm8.032 3.564h1.632v-1.044h-1.236c-.228 0-.336-.12-.336-.36v-3.468h1.764v-1.044h-1.764v-1.956h-1.236v1.956h-1.632v1.044h1.632v3.684c0 .732.444 1.188 1.176 1.188Zm4.021.168a.959.959 0 0 0 .984-.984c0-.576-.432-.972-.984-.972-.564 0-.984.396-.984.972s.42.984.984.984Z"/>
  <circle cx="83.681" cy="66" r="36" fill="#1A1A1A"/>
  <path fill="#FDF8EA" d="m83.681 46 .056.922c.194 3.207 4.61 3.906 5.786.917l.339-.86-.232.894c-.807 3.11 3.178 5.14 5.22 2.66l.587-.713-.497.779c-1.728 2.708 1.434 5.87 4.143 4.142l.779-.497-.714.587c-2.48 2.042-.45 6.027 2.66 5.22l.894-.231-.859.338c-2.99 1.175-2.29 5.592.916 5.786l.922.056-.922.056c-3.207.194-3.906 4.61-.916 5.786l.859.338-.894-.232c-3.11-.806-5.14 3.179-2.66 5.22l.714.588-.78-.497c-2.708-1.728-5.87 1.434-4.142 4.142l.497.78-.587-.714c-2.042-2.48-6.027-.45-5.22 2.66l.232.894-.339-.86c-1.175-2.99-5.592-2.29-5.786.917l-.056.922-.056-.922c-.194-3.207-4.61-3.906-5.786-.917l-.338.86.232-.894c.806-3.11-3.179-5.14-5.22-2.66l-.588.713.497-.779c1.728-2.708-1.434-5.87-4.142-4.142l-.78.497.714-.588c2.48-2.041.45-6.026-2.66-5.22l-.894.232.86-.338c2.99-1.175 2.29-5.592-.917-5.786L63.681 66l.922-.056c3.207-.194 3.906-4.61.917-5.786l-.86-.338.894.231c3.11.807 5.14-3.178 2.66-5.22l-.713-.587.779.497c2.708 1.728 5.87-1.434 4.142-4.142l-.497-.78.588.714c2.041 2.48 6.026.45 5.22-2.66l-.232-.894.338.86c1.175 2.99 5.592 2.29 5.786-.917l.056-.922Z"/>
</svg>
