<svg xmlns="http://www.w3.org/2000/svg" width="193" height="45" fill="none" viewBox="0 0 193 45">
  <path fill="#F8D457" d="M.8.2h7.04v18.24h7.552V.2h7.04V45h-7.04V24.84H7.84V45H.8V.2Zm28.155 0h19.2v6.4h-12.16v11.84h9.664v6.4h-9.664V38.6h12.16V45h-19.2V.2Zm29.97 0h9.536L75.757 45h-7.04l-1.28-8.896v.128h-8L58.157 45H51.63L58.925.2Zm7.68 29.952L63.47 8.008h-.128L60.27 30.152h6.336ZM80.453.2h10.752c3.498 0 6.122.939 7.872 2.816 1.749 1.877 2.624 4.63 2.624 8.256v22.656c0 3.627-.875 6.379-2.624 8.256C97.327 44.061 94.703 45 91.205 45H80.453V.2Zm10.624 38.4c1.152 0 2.026-.341 2.624-1.024.64-.683.96-1.792.96-3.328V10.952c0-1.536-.32-2.645-.96-3.328-.598-.683-1.472-1.024-2.624-1.024h-3.584v32h3.584ZM107.733.2h7.04v38.4h11.584V45h-18.624V.2Zm23.28 0h7.04V45h-7.04V.2Zm13.592 0h8.832l6.848 26.816h.128V.2h6.272V45h-7.232l-8.448-32.704h-.128V45h-6.272V.2Zm28.593 0h19.2v6.4h-12.16v11.84h9.664v6.4h-9.664V38.6h12.16V45h-19.2V.2Z"/>
  <path fill="#1A1A1A" d="M.8.2v-.5a.5.5 0 0 0-.5.5h.5Zm7.04 0h.5a.5.5 0 0 0-.5-.5v.5Zm0 18.24h-.5a.5.5 0 0 0 .5.5v-.5Zm7.552 0v.5a.5.5 0 0 0 .5-.5h-.5Zm0-18.24v-.5a.5.5 0 0 0-.5.5h.5Zm7.04 0h.5a.5.5 0 0 0-.5-.5v.5Zm0 44.8v.5a.5.5 0 0 0 .5-.5h-.5Zm-7.04 0h-.5a.5.5 0 0 0 .5.5V45Zm0-20.16h.5a.5.5 0 0 0-.5-.5v.5Zm-7.552 0v-.5a.5.5 0 0 0-.5.5h.5Zm0 20.16v.5a.5.5 0 0 0 .5-.5h-.5ZM.8 45H.3a.5.5 0 0 0 .5.5V45ZM.8.7h7.04v-1H.8v1ZM7.34.2v18.24h1V.2h-1Zm.5 18.74h7.552v-1H7.84v1Zm8.052-.5V.2h-1v18.24h1ZM15.392.7h7.04v-1h-7.04v1Zm6.54-.5V45h1V.2h-1Zm.5 44.3h-7.04v1h7.04v-1Zm-6.54.5V24.84h-1V45h1Zm-.5-20.66H7.84v1h7.552v-1Zm-8.052.5V45h1V24.84h-1Zm.5 19.66H.8v1h7.04v-1ZM1.3 45V.2h-1V45h1ZM28.955.2v-.5a.5.5 0 0 0-.5.5h.5Zm19.2 0h.5a.5.5 0 0 0-.5-.5v.5Zm0 6.4v.5a.5.5 0 0 0 .5-.5h-.5Zm-12.16 0v-.5a.5.5 0 0 0-.5.5h.5Zm0 11.84h-.5a.5.5 0 0 0 .5.5v-.5Zm9.664 0h.5a.5.5 0 0 0-.5-.5v.5Zm0 6.4v.5a.5.5 0 0 0 .5-.5h-.5Zm-9.664 0v-.5a.5.5 0 0 0-.5.5h.5Zm0 13.76h-.5a.5.5 0 0 0 .5.5v-.5Zm12.16 0h.5a.5.5 0 0 0-.5-.5v.5Zm0 6.4v.5a.5.5 0 0 0 .5-.5h-.5Zm-19.2 0h-.5a.5.5 0 0 0 .5.5V45Zm0-44.3h19.2v-1h-19.2v1Zm18.7-.5v6.4h1V.2h-1Zm.5 5.9h-12.16v1h12.16v-1Zm-12.66.5v11.84h1V6.6h-1Zm.5 12.34h9.664v-1h-9.664v1Zm9.164-.5v6.4h1v-6.4h-1Zm.5 5.9h-9.664v1h9.664v-1Zm-10.164.5V38.6h1V24.84h-1Zm.5 14.26h12.16v-1h-12.16v1Zm11.66-.5V45h1v-6.4h-1Zm.5 5.9h-19.2v1h19.2v-1Zm-18.7.5V.2h-1V45h1ZM58.925.2v-.5a.5.5 0 0 0-.493.42l.493.08Zm9.536 0 .494-.08a.5.5 0 0 0-.494-.42v.5ZM75.757 45v.5a.5.5 0 0 0 .494-.58l-.494.08Zm-7.04 0-.495.071a.5.5 0 0 0 .495.429V45Zm-1.28-8.896.495-.071a.5.5 0 0 0-.995.071h.5Zm0 .128v.5a.5.5 0 0 0 .5-.5h-.5Zm-8 0v-.5a.5.5 0 0 0-.494.428l.494.072ZM58.157 45v.5a.5.5 0 0 0 .495-.428L58.157 45Zm-6.528 0-.493-.08a.5.5 0 0 0 .493.58V45Zm14.976-14.848v.5a.5.5 0 0 0 .495-.57l-.495.07ZM63.47 8.008l.495-.07a.5.5 0 0 0-.495-.43v.5Zm-.128 0v-.5a.5.5 0 0 0-.495.431l.495.069ZM60.27 30.152l-.495-.069a.5.5 0 0 0 .495.569v-.5ZM58.925.7h9.536v-1h-9.536v1Zm9.043-.42 7.296 44.8.987-.16L68.955.12l-.987.16Zm7.79 44.22h-7.04v1h7.04v-1Zm-6.546.429-1.28-8.896-.99.142 1.28 8.896.99-.142Zm-2.275-8.825v.128h1v-.128h-1Zm.5-.372h-8v1h8v-1Zm-8.494.428-1.28 8.768.989.144 1.28-8.768-.99-.144Zm-.786 8.34H51.63v1h6.528v-1Zm-6.034.58L59.419.28l-.987-.16-7.296 44.8.987.16ZM67.1 30.082 63.964 7.938l-.99.14 3.136 22.144.99-.14ZM63.47 7.508h-.129v1h.128v-1Zm-.624.431-3.072 22.144.99.138 3.072-22.144-.99-.138Zm-2.577 22.713h6.336v-1H60.27v1ZM80.453.2v-.5a.5.5 0 0 0-.5.5h.5Zm18.624 2.816-.366.34.366-.34Zm0 39.168-.366-.34.366.34ZM80.453 45h-.5a.5.5 0 0 0 .5.5V45ZM93.7 37.576l-.365-.342a.454.454 0 0 0-.011.013l.376.329Zm0-29.952-.376.33a.428.428 0 0 0 .011.012l.365-.342ZM87.493 6.6v-.5a.5.5 0 0 0-.5.5h.5Zm0 32h-.5a.5.5 0 0 0 .5.5v-.5ZM80.453.7h10.752v-1H80.453v1Zm10.752 0c3.412 0 5.882.914 7.506 2.657l.732-.682C97.568.664 94.79-.3 91.205-.3v1Zm7.506 2.657c1.633 1.752 2.49 4.363 2.49 7.915h1c0-3.7-.893-6.595-2.758-8.597l-.732.682Zm2.49 7.915v22.656h1V11.272h-1Zm0 22.656c0 3.553-.857 6.163-2.49 7.915l.732.682c1.865-2.002 2.758-4.896 2.758-8.597h-1Zm-2.49 7.915c-1.624 1.743-4.094 2.657-7.506 2.657v1c3.585 0 6.363-.964 8.238-2.975l-.732-.682ZM91.205 44.5H80.453v1h10.752v-1Zm-10.252.5V.2h-1V45h1Zm10.124-5.9c1.254 0 2.283-.376 3-1.195l-.752-.658c-.478.546-1.199.853-2.248.853v1Zm2.989-1.182c.768-.82 1.095-2.084 1.095-3.67h-1c0 1.486-.313 2.44-.825 2.986l.73.684Zm1.095-3.67V10.952h-1v23.296h1Zm0-23.296c0-1.586-.327-2.85-1.096-3.67l-.729.684c.512.546.825 1.5.825 2.986h1Zm-1.084-3.657c-.717-.82-1.746-1.195-3-1.195v1c1.05 0 1.77.307 2.248.853l.752-.658Zm-3-1.195h-3.584v1h3.584v-1Zm-4.084.5v32h1v-32h-1Zm.5 32.5h3.584v-1h-3.584v1ZM107.733.2v-.5a.5.5 0 0 0-.5.5h.5Zm7.04 0h.5a.5.5 0 0 0-.5-.5v.5Zm0 38.4h-.5a.5.5 0 0 0 .5.5v-.5Zm11.584 0h.5a.5.5 0 0 0-.5-.5v.5Zm0 6.4v.5a.5.5 0 0 0 .5-.5h-.5Zm-18.624 0h-.5a.5.5 0 0 0 .5.5V45Zm0-44.3h7.04v-1h-7.04v1Zm6.54-.5v38.4h1V.2h-1Zm.5 38.9h11.584v-1h-11.584v1Zm11.084-.5V45h1v-6.4h-1Zm.5 5.9h-18.624v1h18.624v-1Zm-18.124.5V.2h-1V45h1ZM131.013.2v-.5a.5.5 0 0 0-.5.5h.5Zm7.04 0h.5a.5.5 0 0 0-.5-.5v.5Zm0 44.8v.5a.5.5 0 0 0 .5-.5h-.5Zm-7.04 0h-.5a.5.5 0 0 0 .5.5V45Zm0-44.3h7.04v-1h-7.04v1Zm6.54-.5V45h1V.2h-1Zm.5 44.3h-7.04v1h7.04v-1Zm-6.54.5V.2h-1V45h1ZM144.605.2v-.5a.5.5 0 0 0-.5.5h.5Zm8.832 0 .485-.124a.5.5 0 0 0-.485-.376v.5Zm6.848 26.816-.484.124a.5.5 0 0 0 .484.376v-.5Zm.128 0v.5a.5.5 0 0 0 .5-.5h-.5Zm0-26.816v-.5a.5.5 0 0 0-.5.5h.5Zm6.272 0h.5a.5.5 0 0 0-.5-.5v.5Zm0 44.8v.5a.5.5 0 0 0 .5-.5h-.5Zm-7.232 0-.484.125a.5.5 0 0 0 .484.375V45Zm-8.448-32.704.484-.125a.5.5 0 0 0-.484-.375v.5Zm-.128 0v-.5a.5.5 0 0 0-.5.5h.5Zm0 32.704v.5a.5.5 0 0 0 .5-.5h-.5Zm-6.272 0h-.5a.5.5 0 0 0 .5.5V45Zm0-44.3h8.832v-1h-8.832v1Zm8.348-.376 6.848 26.816.969-.248L153.922.076l-.969.248Zm7.332 27.192h.128v-1h-.128v1Zm.628-.5V.2h-1v26.816h1ZM160.413.7h6.272v-1h-6.272v1Zm5.772-.5V45h1V.2h-1Zm.5 44.3h-7.232v1h7.232v-1Zm-6.748.375-8.448-32.704-.968.25 8.448 32.704.968-.25Zm-8.932-33.079h-.128v1h.128v-1Zm-.628.5V45h1V12.296h-1Zm.5 32.204h-6.272v1h6.272v-1Zm-5.772.5V.2h-1V45h1ZM173.198.2v-.5a.5.5 0 0 0-.5.5h.5Zm19.2 0h.5a.5.5 0 0 0-.5-.5v.5Zm0 6.4v.5a.5.5 0 0 0 .5-.5h-.5Zm-12.16 0v-.5a.5.5 0 0 0-.5.5h.5Zm0 11.84h-.5a.5.5 0 0 0 .5.5v-.5Zm9.664 0h.5a.5.5 0 0 0-.5-.5v.5Zm0 6.4v.5a.5.5 0 0 0 .5-.5h-.5Zm-9.664 0v-.5a.5.5 0 0 0-.5.5h.5Zm0 13.76h-.5a.5.5 0 0 0 .5.5v-.5Zm12.16 0h.5a.5.5 0 0 0-.5-.5v.5Zm0 6.4v.5a.5.5 0 0 0 .5-.5h-.5Zm-19.2 0h-.5a.5.5 0 0 0 .5.5V45Zm0-44.3h19.2v-1h-19.2v1Zm18.7-.5v6.4h1V.2h-1Zm.5 5.9h-12.16v1h12.16v-1Zm-12.66.5v11.84h1V6.6h-1Zm.5 12.34h9.664v-1h-9.664v1Zm9.164-.5v6.4h1v-6.4h-1Zm.5 5.9h-9.664v1h9.664v-1Zm-10.164.5V38.6h1V24.84h-1Zm.5 14.26h12.16v-1h-12.16v1Zm11.66-.5V45h1v-6.4h-1Zm.5 5.9h-19.2v1h19.2v-1Zm-18.7.5V.2h-1V45h1Z"/>
</svg>
