<svg xmlns="http://www.w3.org/2000/svg" width="169" height="226" fill="none" viewBox="0 0 169 226">
  <rect width="166" height="223" x="1.125" y="1.521" fill="#F8D457" stroke="#1A1A1A" stroke-width="2" rx="11"/>
  <path fill="#1A1A1A" d="M36.181 142.521h7.232v-1.92h-5.12v-9.28h-2.112v11.2Zm12.512.224c2.368 0 4.16-1.504 4.16-4.064v-.256c0-2.56-1.792-4.064-4.16-4.064-2.368 0-4.16 1.504-4.16 4.064v.256c0 2.56 1.792 4.064 4.16 4.064Zm0-1.792c-1.232 0-2.144-.832-2.144-2.32v-.16c0-1.488.896-2.32 2.144-2.32 1.248 0 2.144.832 2.144 2.32v.16c0 1.488-.912 2.32-2.144 2.32Zm6.021 1.568h2.016v-4.512c0-1.12.736-1.664 1.76-1.664h.992v-1.792h-.96c-.736 0-1.312.288-1.536.928h-.288v-.896h-1.984v7.936Zm9.679.224c2.176 0 3.12-1.232 3.568-2.08l-1.648-.864c-.272.608-.736 1.184-1.856 1.184s-1.968-.752-2.016-1.84h5.776v-.688c0-2.432-1.52-4.096-3.856-4.096-2.368 0-3.968 1.6-3.968 4.096v.192c0 2.496 1.616 4.096 4 4.096Zm-1.936-5.104c.144-.912.8-1.52 1.888-1.52 1.04 0 1.728.608 1.824 1.52h-3.712Zm7.554 4.88h2.016v-4.688c0-1.088.512-1.696 1.44-1.696.8 0 1.28.448 1.28 1.312v5.072h2.016v-4.688c0-1.088.512-1.696 1.44-1.696.8 0 1.28.448 1.28 1.312v5.072h2.016v-5.216c0-1.92-1.184-2.848-2.656-2.848-1.216 0-1.824.512-2.176 1.184h-.288c-.368-.704-1.008-1.184-2.144-1.184-1.056 0-1.68.464-1.952.992h-.288v-.864h-1.984v7.936Zm18.727-8.864c.736 0 1.296-.512 1.296-1.28s-.56-1.28-1.296-1.28-1.296.512-1.296 1.28.56 1.28 1.296 1.28Zm-1.008 8.864h2.016v-7.936H87.73v7.936Zm4.25 3.2h2.016v-4.112h.288c.336.56 1.024 1.136 2.464 1.136 1.92 0 3.584-1.472 3.584-4.064v-.256c0-2.592-1.68-4.064-3.584-4.064-1.44 0-2.128.576-2.496 1.184h-.288v-.96H91.98v11.136Zm4.16-4.736c-1.248 0-2.176-.816-2.176-2.352v-.16c0-1.536.944-2.352 2.176-2.352 1.232 0 2.176.816 2.176 2.352v.16c0 1.536-.928 2.352-2.176 2.352Zm9.339 1.76c2.016 0 3.328-.944 3.328-2.608 0-1.664-1.408-2.176-3.2-2.496l-.448-.08c-.736-.128-1.184-.336-1.184-.848 0-.464.416-.752 1.184-.752s1.312.304 1.488 1.12l1.872-.576c-.368-1.28-1.584-2.144-3.36-2.144-1.888 0-3.136.88-3.136 2.448s1.376 2.192 3.04 2.496l.448.08c.944.176 1.344.4 1.344.896s-.448.864-1.376.864c-.928 0-1.68-.352-1.888-1.472l-1.856.48c.272 1.664 1.664 2.592 3.744 2.592Zm8.118-.096c1.424 0 2.064-.624 2.32-1.168h.288v1.04h1.984v-7.936h-2.016v4.032c0 1.472-.72 2.336-1.952 2.336-1.088 0-1.696-.592-1.696-1.792v-4.576h-2.016v4.736c0 1.968 1.232 3.328 3.088 3.328Zm6.836-.128h2.016v-4.688c0-1.088.512-1.696 1.44-1.696.8 0 1.28.448 1.28 1.312v5.072h2.016v-4.688c0-1.088.512-1.696 1.44-1.696.8 0 1.28.448 1.28 1.312v5.072h2.016v-5.216c0-1.92-1.184-2.848-2.656-2.848-1.216 0-1.824.512-2.176 1.184h-.288c-.368-.704-1.008-1.184-2.144-1.184-1.056 0-1.68.464-1.952.992h-.288v-.864h-1.984v7.936Zm-89.24 28h5.34v-1.176h-4.044v-7.224h-1.296v8.4Zm9.312.168c1.776 0 3.072-1.152 3.072-3.036v-.18c0-1.872-1.296-3.036-3.072-3.036s-3.06 1.164-3.06 3.036v.18c0 1.884 1.284 3.036 3.06 3.036Zm0-1.104c-1.08 0-1.824-.732-1.824-1.968v-.108c0-1.224.744-1.968 1.824-1.968 1.092 0 1.836.744 1.836 1.968v.108c0 1.236-.756 1.968-1.836 1.968Zm4.61.936h1.236v-3.48c0-.912.565-1.344 1.368-1.344h.756v-1.116h-.708c-.636 0-1.056.228-1.248.72h-.191v-.696h-1.213v5.916Zm7.142.168c1.596 0 2.292-.9 2.652-1.584l-1.032-.528c-.252.552-.66 1.032-1.596 1.032-.996 0-1.728-.66-1.764-1.704h4.548v-.468c0-1.8-1.152-3-2.856-3-1.74 0-2.952 1.212-2.952 3.06v.144c0 1.836 1.2 3.048 3 3.048Zm-1.728-3.732c.12-.888.732-1.428 1.668-1.428.924 0 1.548.54 1.62 1.428H50.53Zm6.024 3.564h1.236v-3.528c0-.936.504-1.44 1.272-1.44.708 0 1.128.408 1.128 1.116v3.852h1.236v-3.528c0-.936.504-1.44 1.272-1.44.708 0 1.128.408 1.128 1.116v3.852h1.236v-3.936c0-1.344-.852-2.076-1.992-2.076-.96 0-1.44.42-1.704.96h-.192c-.276-.552-.78-.96-1.668-.96-.852 0-1.332.384-1.548.792h-.192v-.696h-1.212v5.916Zm13.972-6.72c.48 0 .852-.336.852-.84s-.372-.84-.852-.84c-.492 0-.852.336-.852.84s.36.84.852.84Zm-.624 6.72h1.236v-5.916H69.9v5.916Zm3.07 2.4h1.236v-3.204h.192c.276.48.84.972 1.992.972 1.488 0 2.736-1.128 2.736-3.036v-.18c0-1.908-1.26-3.036-2.736-3.036-1.152 0-1.716.492-2.016 1.02h-.192v-.852h-1.212v8.316Zm3.06-3.312c-1.068 0-1.836-.72-1.836-1.992v-.108c0-1.272.78-1.98 1.836-1.98 1.068 0 1.848.708 1.848 1.98v.108c0 1.272-.768 1.992-1.848 1.992Zm7.051 1.08c1.477 0 2.437-.684 2.437-1.872 0-1.2-1.02-1.584-2.305-1.812l-.42-.072c-.647-.12-1.043-.3-1.043-.78 0-.444.395-.708 1.08-.708.695 0 1.188.264 1.32.984l1.151-.324c-.252-1.032-1.14-1.668-2.472-1.668-1.38 0-2.28.648-2.28 1.764s.96 1.584 2.16 1.8l.42.072c.769.144 1.177.324 1.177.804 0 .492-.445.816-1.225.816-.791 0-1.463-.312-1.631-1.308l-1.152.276c.215 1.356 1.271 2.028 2.783 2.028Zm6.15-.06c1.127 0 1.643-.504 1.871-.996h.192v.888h1.212v-5.916h-1.236v2.988c0 1.284-.66 1.98-1.68 1.98-.912 0-1.452-.48-1.452-1.5v-3.468h-1.236v3.552c0 1.524.972 2.472 2.328 2.472Zm5.102-.108h1.236v-3.528c0-.936.504-1.44 1.272-1.44.708 0 1.128.408 1.128 1.116v3.852h1.236v-3.528c0-.936.504-1.44 1.272-1.44.708 0 1.128.408 1.128 1.116v3.852h1.236v-3.936c0-1.344-.852-2.076-1.992-2.076-.96 0-1.44.42-1.704.96h-.192c-.276-.552-.78-.96-1.668-.96-.852 0-1.332.384-1.548.792h-.192v-.696h-1.212v5.916Zm15.796.168c1.152 0 1.716-.492 2.016-1.008h.192v.84h1.212v-8.4h-1.236v3.288h-.192c-.276-.48-.84-.972-1.992-.972-1.488 0-2.736 1.128-2.736 3.036v.18c0 1.92 1.26 3.036 2.736 3.036Zm.348-1.08c-1.056 0-1.836-.72-1.836-1.992v-.108c0-1.272.768-1.98 1.836-1.98 1.08 0 1.848.708 1.848 1.98v.108c0 1.272-.78 1.992-1.848 1.992Zm7.663 1.08c1.776 0 3.072-1.152 3.072-3.036v-.18c0-1.872-1.296-3.036-3.072-3.036s-3.06 1.164-3.06 3.036v.18c0 1.884 1.284 3.036 3.06 3.036Zm0-1.104c-1.08 0-1.824-.732-1.824-1.968v-.108c0-1.224.744-1.968 1.824-1.968 1.092 0 1.836.744 1.836 1.968v.108c0 1.236-.756 1.968-1.836 1.968Zm4.611.936h1.236v-8.4h-1.236v8.4Zm5.843.168c1.776 0 3.072-1.152 3.072-3.036v-.18c0-1.872-1.296-3.036-3.072-3.036s-3.06 1.164-3.06 3.036v.18c0 1.884 1.284 3.036 3.06 3.036Zm0-1.104c-1.08 0-1.824-.732-1.824-1.968v-.108c0-1.224.744-1.968 1.824-1.968 1.092 0 1.836.744 1.836 1.968v.108c0 1.236-.756 1.968-1.836 1.968Zm4.61.936h1.236v-3.48c0-.912.564-1.344 1.368-1.344h.756v-1.116h-.708c-.636 0-1.056.228-1.248.72h-.192v-.696h-1.212v5.916Zm-71.62 16.168c1.475 0 2.435-.684 2.435-1.872 0-1.2-1.02-1.584-2.304-1.812l-.42-.072c-.648-.12-1.044-.3-1.044-.78 0-.444.396-.708 1.08-.708.696 0 1.188.264 1.32.984l1.152-.324c-.252-1.032-1.14-1.668-2.472-1.668-1.38 0-2.28.648-2.28 1.764s.96 1.584 2.16 1.8l.42.072c.768.144 1.176.324 1.176.804 0 .492-.444.816-1.224.816-.792 0-1.464-.312-1.632-1.308l-1.152.276c.216 1.356 1.272 2.028 2.784 2.028Zm4.504-6.888c.48 0 .852-.336.852-.84s-.372-.84-.852-.84c-.492 0-.852.336-.852.84s.36.84.852.84Zm-.624 6.72h1.236v-5.916h-1.236v5.916Zm5.29 0h1.632v-1.044h-1.236c-.228 0-.336-.12-.336-.36v-3.468h1.764v-1.044h-1.764v-1.956H69.58v1.956h-1.632v1.044h1.632v3.684c0 .732.444 1.188 1.176 1.188Zm8.171.168c1.224 0 1.656-.624 1.836-1.008h.192v.036c0 .492.384.804.936.804h.924v-1.032h-.504c-.216 0-.336-.12-.336-.36v-2.436c0-1.44-.936-2.256-2.472-2.256-1.512 0-2.292.804-2.58 1.74l1.152.372c.144-.636.564-1.08 1.416-1.08.864 0 1.272.456 1.272 1.14v.384h-1.8c-1.296 0-2.256.624-2.256 1.824 0 1.2.96 1.872 2.22 1.872Zm.18-1.02c-.732 0-1.164-.348-1.164-.888s.432-.828 1.092-.828h1.728v.12c0 .996-.672 1.596-1.656 1.596Zm4.91.852h1.236v-3.528c0-.936.504-1.44 1.272-1.44.708 0 1.128.408 1.128 1.116v3.852h1.236v-3.528c0-.936.504-1.44 1.272-1.44.708 0 1.128.408 1.128 1.116v3.852h1.236v-3.936c0-1.344-.852-2.076-1.992-2.076-.96 0-1.44.42-1.704.96h-.192c-.276-.552-.78-.96-1.668-.96-.852 0-1.332.384-1.548.792h-.192v-.696h-1.212v5.916Zm13 .168c1.597 0 2.293-.9 2.653-1.584l-1.032-.528c-.252.552-.66 1.032-1.596 1.032-.996 0-1.728-.66-1.764-1.704h4.548v-.468c0-1.8-1.152-3-2.856-3-1.74 0-2.952 1.212-2.952 3.06v.144c0 1.836 1.2 3.048 3 3.048Zm-1.727-3.732c.12-.888.732-1.428 1.668-1.428.924 0 1.548.54 1.62 1.428h-3.288Zm8.033 3.564h1.632v-1.044h-1.236c-.228 0-.336-.12-.336-.36v-3.468h1.764v-1.044h-1.764v-1.956h-1.236v1.956h-1.632v1.044h1.632v3.684c0 .732.444 1.188 1.176 1.188Zm4.02.168a.959.959 0 0 0 .984-.984c0-.576-.432-.972-.984-.972-.564 0-.984.396-.984.972s.42.984.984.984Z"/>
  <circle cx="84.125" cy="66.521" r="36" fill="#1A1A1A"/>
  <path fill="#A4D677" d="M80.404 51.956c1.332-3.377 6.11-3.377 7.442 0l2.43 6.16a4 4 0 0 0 2.254 2.254l6.16 2.43c3.377 1.331 3.377 6.11 0 7.442l-6.16 2.43a4 4 0 0 0-2.254 2.253l-2.43 6.16c-1.331 3.378-6.11 3.378-7.442 0l-2.43-6.16a4 4 0 0 0-2.253-2.253l-6.16-2.43c-3.377-1.332-3.377-6.11 0-7.442l6.16-2.43a4 4 0 0 0 2.254-2.254l2.43-6.16Z"/>
</svg>
