<svg width="87" height="87" viewBox="0 0 87 87" fill="none" xmlns="http://www.w3.org/2000/svg">
    <circle cx="43.5" cy="43.5" r="43.5" fill="#FEB3EB" />
    <path d="M37.9184 23.8779C39.916 18.813 47.084 18.813 49.0816 23.8779L51.7781 30.7149C52.5912 32.7767 54.2233 34.4088 56.2851 35.2219L63.1221 37.9184C68.187 39.916 68.187 47.084 63.1221 49.0816L56.2851 51.7781C54.2233 52.5912 52.5912 54.2233 51.7781 56.2851L49.0816 63.1221C47.084 68.187 39.916 68.187 37.9184 63.1221L35.2219 56.2851C34.4088 54.2233 32.7767 52.5912 30.7149 51.7781L23.8779 49.0816C18.813 47.084 18.813 39.916 23.8779 37.9184L30.7149 35.2219C32.7767 34.4088 34.4088 32.7767 35.2219 30.7149L37.9184 23.8779Z" fill="#A4D677" stroke="#1A1A1A" stroke-width="2" />
</svg>