<svg width="87" height="87" viewBox="0 0 87 87" fill="none" xmlns="http://www.w3.org/2000/svg">
    <circle cx="43.5" cy="43.5" r="43.5" fill="#FEB3EB" />
    <path d="M48.1613 25.4228L53.7148 20.5573L53.815 27.94L53.8331 29.2777L55.1109 28.8816L62.1633 26.6955L59.252 33.4807L58.7245 34.7101L60.053 34.868L67.3848 35.7394L61.9654 40.7538L60.9834 41.6624L62.1328 42.347L68.4763 46.1251L61.4859 48.5018L60.2193 48.9324L60.9909 50.0253L65.2493 56.057L57.8966 55.3849L56.5643 55.2631L56.8247 56.5754L58.2616 63.8176L51.8179 60.213L50.6503 59.5599L50.3544 60.8646L48.7215 68.0651L44.301 62.1513L43.5 61.0797L42.699 62.1513L38.2785 68.0651L36.6456 60.8646L36.3497 59.5599L35.1821 60.213L28.7384 63.8176L30.1753 56.5754L30.4357 55.2631L29.1034 55.3849L21.7507 56.057L26.0091 50.0253L26.7807 48.9324L25.5141 48.5018L18.5237 46.1251L24.8672 42.347L26.0166 41.6624L25.0346 40.7538L19.6152 35.7394L26.947 34.868L28.2755 34.7101L27.748 33.4807L24.8367 26.6955L31.8891 28.8816L33.1669 29.2777L33.185 27.94L33.2852 20.5573L38.8387 25.4228L39.845 26.3044L40.4056 25.0898L43.5 18.3861L46.5944 25.0898L47.155 26.3044L48.1613 25.4228Z" fill="#C9A4FF" stroke="#1A1A1A" stroke-width="2" />
</svg>