<svg width="87" height="87" viewBox="0 0 87 87" fill="none" xmlns="http://www.w3.org/2000/svg">
    <circle cx="43.5" cy="43.5" r="43.5" fill="#FEB3EB" />
    <path d="M42.586 18.5224C42.9378 17.7302 44.0622 17.7302 44.4139 18.5224L48.1362 26.9052C48.7848 28.3659 50.4645 29.0617 51.956 28.4874L60.5156 25.1919C61.3245 24.8805 62.1195 25.6755 61.8081 26.4844L58.5126 35.044C57.9383 36.5355 58.6341 38.2152 60.0947 38.8638L68.4776 42.586C69.2698 42.9378 69.2698 44.0622 68.4776 44.4139L60.0947 48.1362C58.6341 48.7848 57.9383 50.4645 58.5126 51.956L61.8081 60.5156C62.1195 61.3245 61.3245 62.1195 60.5156 61.8081L51.956 58.5126C50.4645 57.9383 48.7848 58.6341 48.1362 60.0947L44.414 68.4776C44.0622 69.2698 42.9378 69.2698 42.5861 68.4776L38.8638 60.0947C38.2152 58.6341 36.5355 57.9383 35.044 58.5126L26.4844 61.8081C25.6755 62.1195 24.8805 61.3245 25.1919 60.5156L28.4874 51.956C29.0617 50.4645 28.3659 48.7848 26.9053 48.1362L18.5224 44.414C17.7302 44.0622 17.7302 42.9378 18.5224 42.5861L26.9052 38.8638C28.3659 38.2152 29.0617 36.5355 28.4874 35.044L25.1919 26.4844C24.8805 25.6755 25.6755 24.8805 26.4844 25.1919L35.044 28.4874C36.5355 29.0617 38.2152 28.3659 38.8638 26.9052L42.586 18.5224Z" fill="#F8D457" stroke="#1A1A1A" stroke-width="2" stroke-linejoin="round" />
</svg>